<svg width="151" height="40" viewBox="0 0 151 40" fill="none" xmlns="http://www.w3.org/2000/svg">
<path d="M37.2594 25.7425C37.1485 25.7151 37.0319 25.6873 36.9132 25.6553C36.9038 25.6516 36.8956 25.6507 36.8859 25.647C37.5196 24.1403 38.0486 22.4659 38.4399 20.6034C39.7691 14.293 37.911 8.60356 33.3444 4.99522C30.4754 2.72897 26.8351 1.52201 23.3176 1.52201C23.2634 1.52201 23.2109 1.52319 23.158 1.5235C23.1097 1.52076 23.0595 1.5235 23.0135 1.51373C23.0204 1.51709 23.0271 1.52108 23.0344 1.52475C23.0256 1.52475 23.0168 1.52475 23.0081 1.52506C26.4145 3.19678 28.6555 6.13411 29.3304 9.7955C31.2206 11.3056 33.2279 14.1782 32.1437 19.3231C31.805 20.9211 31.3434 22.334 30.7854 23.5819C29.2252 22.9462 27.5919 22.1957 26.0406 21.3452C25.8213 21.2244 25.6023 21.1038 25.389 20.9802C25.1727 20.8566 24.9595 20.73 24.7462 20.6006C22.8093 19.426 21.0708 18.0868 19.8497 16.6092C19.6861 16.409 19.531 16.209 19.388 16.0059C19.2389 15.7999 19.1044 15.5908 18.9791 15.379C18.3098 14.2459 17.9624 13.039 18.0588 11.7734C18.1211 10.9794 18.342 10.296 18.718 9.72781C18.7258 9.71653 18.7312 9.70308 18.7394 9.69181H18.7388C18.7413 9.68817 18.7428 9.68411 18.7452 9.68078C18.6721 9.64235 18.5934 9.60726 18.5143 9.5749C17.8979 9.32465 17.153 9.19223 16.3583 9.19223C16.1215 9.19223 15.8792 9.20423 15.6365 9.22738C14.2431 9.35708 12.8405 9.86332 11.7187 10.6287C11.6894 10.8375 11.6691 11.0493 11.6515 11.2644C11.4761 13.5573 11.929 16.4179 14.0531 19.4322C14.1904 19.6262 14.3337 19.8206 14.4854 20.0148C14.6345 20.2091 14.7923 20.4033 14.9558 20.6007C16.1596 22.0249 17.7549 23.4702 19.8526 24.8918C20.0659 25.0391 20.2876 25.1832 20.5126 25.3306C20.7347 25.4716 20.9598 25.613 21.1906 25.7542C22.0057 26.2547 22.8879 26.7521 23.8403 27.2437C24.7642 27.7202 25.6857 28.1483 26.5909 28.5468C26.7605 28.6237 26.922 28.7009 27.0937 28.7776C25.8242 29.9384 24.4552 30.7819 23.1041 31.3877C22.5519 31.6407 21.9997 31.8529 21.4623 32.0295C21.4569 32.0313 21.4511 32.0328 21.4457 32.035C20.4124 32.3752 19.2924 32.3752 18.2592 32.035C18.2537 32.0328 18.2482 32.0313 18.2425 32.0295C17.7051 31.8528 17.1529 31.6407 16.6007 31.3877C15.3812 30.8411 14.1512 30.0868 12.9889 29.0944C12.8641 28.986 12.7336 28.8847 12.6125 28.7714C13.6741 28.3162 14.7681 27.8077 15.8646 27.2438C16.6574 26.8346 17.3901 26.4205 18.0875 26.0048C18.226 25.9248 18.3725 25.844 18.507 25.7643C18.5055 25.7633 18.5043 25.7622 18.5028 25.7609C18.5064 25.7588 18.5107 25.7564 18.5143 25.7542C18.2675 25.5794 18.0281 25.4044 17.7949 25.229C17.7761 25.215 17.757 25.2009 17.7385 25.1866C17.3066 24.8607 16.9001 24.5335 16.5129 24.2057C16.4447 24.1481 16.3763 24.0901 16.3092 24.0322C15.9949 23.7605 15.698 23.4883 15.4129 23.2164C15.2794 23.0885 15.147 22.9607 15.0185 22.8316C14.8243 22.6368 14.6375 22.4425 14.4572 22.2477C14.2209 21.9914 13.9896 21.7341 13.7741 21.4738C13.7383 21.4311 13.6996 21.388 13.6645 21.3453C12.1132 22.1957 10.4802 22.9462 8.91969 23.5819C8.36171 22.334 7.90041 20.9211 7.56111 19.3232C6.47722 14.1783 8.48438 11.3057 10.3746 9.79562C10.3866 9.78678 10.3953 9.77793 10.4068 9.76944C10.6788 9.55429 10.962 9.35708 11.2571 9.17775C11.5494 8.99793 11.8532 8.8332 12.1629 8.68605C13.2204 8.18593 14.3684 7.86787 15.4993 7.76193C15.7885 7.73272 16.0749 7.72078 16.3583 7.72078C17.3223 7.72078 18.2486 7.87975 19.0638 8.21217C19.3501 8.32696 19.613 8.46235 19.8526 8.61835C20.0804 8.76265 20.2876 8.92441 20.4718 9.10411C20.656 9.28053 20.8195 9.47187 20.9568 9.68084C21.3543 10.2576 21.582 10.9584 21.6463 11.7735C21.7429 13.039 21.3952 14.243 20.7233 15.376C21.8859 16.9154 23.7352 18.293 25.6519 19.4322C27.7759 16.4179 28.2285 13.5573 28.0535 11.2644C28.0359 11.0493 28.0152 10.8375 27.9862 10.6287C27.9423 10.2989 27.8838 9.97514 27.8108 9.65738C27.7378 9.32478 27.6472 9.00102 27.5421 8.68599C26.613 5.8899 24.5416 3.70303 21.6084 2.5049C21.0416 2.27538 20.4543 2.08413 19.8526 1.93694C19.3413 1.80725 18.8211 1.71053 18.2922 1.64248C17.7664 1.57475 17.2347 1.53654 16.697 1.52498C16.5949 1.52194 16.4926 1.52194 16.3875 1.52194C12.8699 1.52194 9.22662 2.72889 6.36057 4.99514C1.79106 8.60368 -0.0640712 14.293 1.2652 20.6034C1.64232 22.397 2.1488 24.0119 2.75166 25.4746C2.77469 25.5316 2.79493 25.5914 2.81827 25.6485C2.68745 25.6837 2.565 25.7132 2.44263 25.7425C0.722044 26.1665 -0.329988 27.8529 0.0938188 29.51C0.453104 30.9111 1.7505 31.8409 3.18183 31.8409C3.4451 31.8409 3.71381 31.8086 3.98252 31.7439C4.06736 31.7231 4.86185 31.526 6.10357 31.1464C7.0823 32.3384 8.13678 33.3509 9.2268 34.2134C9.43694 34.3783 9.64756 34.5373 9.86076 34.6932C10.0828 34.8549 10.3049 35.014 10.5299 35.164C10.7626 35.3209 10.9962 35.4708 11.2301 35.6154C11.3081 35.664 11.3863 35.7082 11.4648 35.7549C11.6205 35.8486 11.7764 35.9429 11.9325 36.0317C12.0258 36.0844 12.1191 36.1333 12.2126 36.1846C12.3533 36.2618 12.4935 36.3396 12.6337 36.4129C12.7346 36.4654 12.8349 36.514 12.9354 36.5646C13.0678 36.6311 13.2005 36.6983 13.3323 36.7614C13.4359 36.8109 13.5385 36.857 13.6416 36.904C13.77 36.9632 13.8987 37.023 14.0269 37.0791C14.1308 37.1246 14.2337 37.167 14.337 37.2106C14.4625 37.2634 14.5878 37.3165 14.7127 37.3665C14.8166 37.4081 14.9196 37.4474 15.0229 37.4871C15.1453 37.5341 15.2676 37.5814 15.389 37.6257C15.4922 37.6632 15.5936 37.6989 15.6957 37.7346C15.7732 37.762 15.852 37.7913 15.929 37.8176C15.9586 37.8276 15.9887 37.8359 16.0183 37.8459C16.0659 37.8618 16.1143 37.8798 16.1613 37.8951C18.5593 38.6833 21.1459 38.6833 23.5438 37.8951C23.5911 37.8798 23.6395 37.8618 23.6871 37.8456C23.7168 37.8359 23.7469 37.8276 23.7765 37.8176C23.8532 37.7913 23.9316 37.762 24.0089 37.7349C24.1113 37.6988 24.2133 37.6632 24.3166 37.6257C24.4375 37.5814 24.5596 37.5344 24.6816 37.4874C24.7852 37.4474 24.8885 37.4081 24.9928 37.3662C25.1173 37.3165 25.242 37.2637 25.3671 37.2109C25.4711 37.1673 25.5744 37.1245 25.6786 37.0791C25.8064 37.023 25.9348 36.9634 26.0633 36.9046C26.1663 36.857 26.2693 36.8109 26.3729 36.7614C26.505 36.6983 26.6373 36.6308 26.7701 36.5643C26.8703 36.514 26.9706 36.4654 27.0715 36.4129C27.2117 36.3399 27.352 36.2618 27.4926 36.1849C27.5859 36.1333 27.6791 36.0844 27.7727 36.0317C27.9282 35.9432 28.0833 35.8495 28.2387 35.7564C28.3177 35.7088 28.3965 35.6643 28.4755 35.6154C28.7094 35.4708 28.9426 35.3206 29.1756 35.164C29.4003 35.0139 29.6225 34.8549 29.8445 34.6932C30.0577 34.5373 30.268 34.3783 30.4785 34.2134C31.5681 33.351 32.6199 32.3384 33.5989 31.1464C34.8433 31.526 35.6351 31.7231 35.7227 31.7439C35.9914 31.8087 36.2573 31.8409 36.5203 31.8409C37.9549 31.8409 39.252 30.9111 39.6113 29.51C40.0351 27.8529 38.9831 26.1665 37.2594 25.7425Z" fill="white"/>
<path d="M58.6386 6.77817H54.9616V18.1818H52.2857V6.77817H48.6281V4.37332H58.6386V6.77817ZM69.7518 18.1818H64.9006C63.3605 18.1818 62.2764 17.9168 61.6471 17.3867C61.0311 16.8436 60.7231 15.8933 60.7231 14.5357V4.37332H69.7518V6.77817H63.399V10.017H67.846L67.6535 12.4218H63.399V14.3418C63.399 14.8848 63.5211 15.2598 63.7647 15.4667C64.009 15.6735 64.4518 15.777 65.0931 15.777H69.7518V18.1818ZM81.2922 6.77817H77.6152V18.1818H74.9394V6.77817H71.2817V4.37332H81.2922V6.77817ZM93.4263 10.6376V11.6848C93.4263 13.9992 92.9896 15.68 92.1172 16.7273C91.257 17.7745 89.8709 18.2982 87.959 18.2982C86.0466 18.2982 84.6605 17.7745 83.8008 16.7273C82.9538 15.68 82.5303 13.9798 82.5303 11.6267V10.6182C82.5303 8.47193 82.9598 6.87514 83.8201 5.82787C84.6924 4.78059 86.0658 4.25696 87.9398 4.25696C89.8264 4.25696 91.2125 4.78706 92.098 5.84726C92.9835 6.90744 93.4263 8.50423 93.4263 10.6376ZM90.7504 11.6267V10.9091C90.7504 9.66787 90.5964 8.67878 90.2884 7.94181C89.9287 7.08847 89.1586 6.66181 87.9783 6.66181C86.7847 6.66181 86.0081 7.08847 85.6489 7.94181C85.3535 8.63999 85.2061 9.62908 85.2061 10.9091V11.6267C85.2061 13.2945 85.4372 14.4194 85.8992 15.0012C86.0785 15.2468 86.342 15.4602 86.6885 15.6412C87.0476 15.8093 87.4711 15.8933 87.959 15.8933C88.4596 15.8933 88.8831 15.8093 89.2296 15.6412C89.5761 15.4731 89.8456 15.2662 90.0381 15.0206C90.2307 14.775 90.378 14.4517 90.4809 14.0509C90.6602 13.4174 90.7504 12.6093 90.7504 11.6267ZM104.679 6.77817H101.002V18.1818H98.3263V6.77817H94.6686V4.37332H104.679V6.77817ZM115.793 18.1818H110.942C109.402 18.1818 108.317 17.9168 107.688 17.3867C107.072 16.8436 106.764 15.8933 106.764 14.5357V4.37332H115.793V6.77817H109.44V10.017H113.887L113.695 12.4218H109.44V14.3418C109.44 14.8848 109.562 15.2598 109.806 15.4667C110.05 15.6735 110.492 15.777 111.134 15.777H115.793V18.1818ZM119.349 16.5576C119.477 16.6788 119.541 16.9414 119.541 17.3454C119.541 17.7495 119.477 18.0162 119.349 18.1454C119.229 18.2747 118.968 18.3394 118.567 18.3394C118.166 18.3394 117.901 18.2747 117.773 18.1454C117.644 18.0162 117.58 17.7495 117.58 17.3454C117.58 16.9414 117.644 16.6788 117.773 16.5576C117.901 16.4283 118.166 16.3636 118.567 16.3636C118.968 16.3636 119.229 16.4283 119.349 16.5576ZM124.762 15.6485L126.182 15.6364C126.174 15.701 126.166 15.8182 126.158 15.9879C126.15 16.1576 126.142 16.2747 126.134 16.3394C126.134 16.3959 126.126 16.4889 126.11 16.6182C126.093 16.7474 126.074 16.8444 126.05 16.9091C126.033 16.9656 126.009 17.0424 125.977 17.1394C125.833 17.5596 125.44 17.8909 124.798 18.1333C124.389 18.2788 123.96 18.3515 123.511 18.3515C123.07 18.3515 122.669 18.2788 122.308 18.1333C121.947 17.9879 121.662 17.802 121.453 17.5757C120.98 17.0747 120.743 16.1374 120.743 14.7636C120.743 13.3818 120.98 12.4404 121.453 11.9394C121.662 11.7131 121.947 11.5273 122.308 11.3818C122.669 11.2364 123.07 11.1636 123.511 11.1636C124.377 11.1636 125.035 11.3818 125.484 11.8182C125.933 12.2545 126.158 12.8606 126.158 13.6364H124.738C124.738 13.2808 124.65 13.0182 124.473 12.8485C124.297 12.6707 123.968 12.5818 123.487 12.5818C123.013 12.5818 122.697 12.7313 122.536 13.0303C122.384 13.3293 122.308 13.7777 122.308 14.3757V15.006C122.308 15.9677 122.492 16.5576 122.861 16.7757C123.03 16.8808 123.25 16.9333 123.523 16.9333C123.795 16.9333 124.016 16.9091 124.185 16.8606C124.361 16.804 124.485 16.7111 124.558 16.5818C124.638 16.4525 124.69 16.3273 124.714 16.206C124.738 16.0768 124.754 15.8909 124.762 15.6485ZM131.206 15.0545V14.4242C131.206 13.8262 131.117 13.3697 130.941 13.0545C130.773 12.7394 130.416 12.5818 129.87 12.5818C128.988 12.5818 128.547 13.1798 128.547 14.3757V15.006C128.547 16.2909 128.988 16.9333 129.87 16.9333C130.44 16.9333 130.813 16.7192 130.989 16.2909C131.134 15.9515 131.206 15.5394 131.206 15.0545ZM132.77 14.6909C132.77 16.1859 132.489 17.1879 131.928 17.697C131.454 18.1333 130.768 18.3515 129.87 18.3515C128.723 18.3515 127.949 18.0121 127.548 17.3333C127.171 16.7111 126.983 15.8303 126.983 14.6909C126.983 13.6242 127.171 12.7879 127.548 12.1818C127.965 11.503 128.723 11.1636 129.822 11.1636C130.929 11.1636 131.695 11.4626 132.12 12.0606C132.553 12.6505 132.77 13.5273 132.77 14.6909ZM135.669 16.5576C135.798 16.6788 135.862 16.9414 135.862 17.3454C135.862 17.7495 135.798 18.0162 135.669 18.1454C135.549 18.2747 135.288 18.3394 134.887 18.3394C134.486 18.3394 134.222 18.2747 134.093 18.1454C133.965 18.0162 133.9 17.7495 133.9 17.3454C133.9 16.9414 133.965 16.6788 134.093 16.5576C134.222 16.4283 134.486 16.3636 134.887 16.3636C135.288 16.3636 135.549 16.4283 135.669 16.5576ZM139.073 18.1818L137.509 18.1939V9.06666H139.073V18.1818ZM143.689 18.1818H142.715C142.121 18.1818 141.668 18.004 141.355 17.6485C141.05 17.2929 140.898 16.8687 140.898 16.3757V12.7394H140.236V11.5394H140.898V10.1818H142.462V11.5394H143.569V12.7394H142.462V16.2788C142.462 16.6586 142.643 16.8485 143.004 16.8485H143.689V18.1818ZM149.977 18.1818H148.93L148.449 17.3454L146.776 18.2545C145.846 18.2545 145.22 17.9151 144.899 17.2364C144.739 16.905 144.627 16.5495 144.562 16.1697C144.506 15.7818 144.478 15.3818 144.478 14.9697C144.478 14.5495 144.482 14.2424 144.49 14.0485C144.498 13.8465 144.518 13.6162 144.55 13.3576C144.582 13.0909 144.627 12.8687 144.683 12.6909C144.747 12.5131 144.835 12.3313 144.947 12.1454C145.06 11.9515 145.196 11.798 145.356 11.6848C145.717 11.4344 146.187 11.3091 146.764 11.3091H148.413V9.06666H149.977V18.1818ZM148.413 15.9757V12.7273H147.221C146.78 12.7273 146.471 12.897 146.295 13.2364C146.127 13.5757 146.042 14.0848 146.042 14.7636C146.042 15.4344 146.122 15.9071 146.283 16.1818C146.451 16.4565 146.764 16.5939 147.221 16.5939L148.413 15.9757ZM55.6114 35.7576H53.6742L52.0018 32.5576H50.7986V35.7576H49.1262V28.9818C49.1262 28.3353 49.2746 27.8667 49.5714 27.5757C49.8681 27.2768 50.3655 27.1273 51.0633 27.1273H52.4831C53.3333 27.1273 54.0071 27.3899 54.5044 27.9151C55.0098 28.4323 55.2624 29.0909 55.2624 29.8909C55.2624 30.4727 55.11 30.9777 54.8052 31.406C54.5084 31.8262 54.1394 32.1171 53.6983 32.2788L55.6114 35.7576ZM52.3748 31.1515C52.7277 31.1515 53.0165 31.0303 53.2411 30.7879C53.4737 30.5374 53.59 30.2303 53.59 29.8667C53.59 29.495 53.4777 29.1959 53.2531 28.9697C53.0365 28.7434 52.7437 28.6303 52.3748 28.6303H51.5446C51.0472 28.6303 50.7986 28.8848 50.7986 29.3939V31.1515H52.3748ZM62.6416 35.7576H59.6095C58.6469 35.7576 57.9692 35.5919 57.5761 35.2606C57.1911 34.9212 56.9986 34.3273 56.9986 33.4788V27.1273H62.6416V28.6303H58.671V30.6545H61.4504L61.3301 32.1576H58.671V33.3576C58.671 33.697 58.7472 33.9313 58.8996 34.0606C59.052 34.1899 59.3288 34.2545 59.7298 34.2545H62.6416V35.7576ZM68.6148 32.4121H70.1669C70.1669 33.5111 69.8944 34.3556 69.3487 34.9454C68.8037 35.5353 68.0337 35.8303 67.0386 35.8303C64.8488 35.8303 63.7539 34.5333 63.7539 31.9394V31.2121C63.7539 29.1677 64.3158 27.8868 65.4384 27.3697C65.88 27.1596 66.413 27.0545 67.0386 27.0545C67.953 27.0545 68.6954 27.3091 69.2645 27.8182C69.842 28.3192 70.1308 29.0465 70.1308 30H68.5667C68.4788 29.5232 68.3224 29.1636 68.0974 28.9212C67.873 28.6788 67.5199 28.5576 67.0386 28.5576C66.4773 28.5576 66.0604 28.7353 65.7873 29.0909C65.5948 29.3414 65.4829 29.7697 65.4504 30.3757C65.4348 30.5697 65.4263 30.8323 65.4263 31.1636V31.9151C65.4263 32.8444 65.5551 33.4788 65.8114 33.8182C66.0761 34.1576 66.4852 34.3273 67.0386 34.3273C67.6005 34.3273 67.9855 34.1737 68.1937 33.8667C68.4103 33.5515 68.551 33.0667 68.6148 32.4121ZM78.0773 35.7576H76.1401L74.4677 32.5576H73.2645V35.7576H71.5921V28.9818C71.5921 28.3353 71.7401 27.8667 72.0373 27.5757C72.3338 27.2768 72.8314 27.1273 73.5292 27.1273H74.949C75.799 27.1273 76.4728 27.3899 76.9703 27.9151C77.4757 28.4323 77.7283 29.0909 77.7283 29.8909C77.7283 30.4727 77.5755 30.9777 77.2711 31.406C76.9739 31.8262 76.6052 32.1171 76.1642 32.2788L78.0773 35.7576ZM74.8407 31.1515C75.1932 31.1515 75.482 31.0303 75.707 30.7879C75.9392 30.5374 76.0559 30.2303 76.0559 29.8667C76.0559 29.495 75.9434 29.1959 75.719 28.9697C75.5024 28.7434 75.2095 28.6303 74.8407 28.6303H74.0105C73.513 28.6303 73.2645 28.8848 73.2645 29.3939V31.1515H74.8407ZM85.9617 35.7576H84.2171L83.7359 34.2667H80.8602L80.391 35.7576H78.6464L81.3896 27.8545C81.51 27.5798 81.6423 27.3899 81.7867 27.2848C81.9389 27.1798 82.1236 27.1273 82.3402 27.1273C82.5567 27.1273 82.7288 27.1757 82.8575 27.2727C82.9935 27.3697 83.1138 27.5636 83.2185 27.8545L85.9617 35.7576ZM83.3508 32.8485L82.3402 29.4303L81.2813 32.8485H83.3508ZM92.708 28.6303H90.4099V35.7576H88.7375V28.6303H86.4514V27.1273H92.708V28.6303ZM95.6829 35.7576H94.0105V27.1273H95.6829V35.7576ZM104.354 27.1273V34.8848C104.354 35.1515 104.274 35.3818 104.114 35.5757C103.953 35.7616 103.765 35.8545 103.548 35.8545C102.995 35.8545 102.542 35.5313 102.189 34.8848L99.2287 30.2182V35.7576H97.5563V27.1273H99.1685L102.682 32.7757V27.1273H104.354ZM105.56 31.697V30.6303C105.56 29.5071 105.853 28.6303 106.439 28C107.024 27.3697 107.834 27.0545 108.869 27.0545C109.904 27.0545 110.734 27.3697 111.36 28C111.801 28.4444 112.022 29.1111 112.022 30H110.457C110.457 29.0384 109.948 28.5576 108.929 28.5576C108.624 28.5576 108.364 28.6182 108.147 28.7394C107.939 28.8525 107.782 28.9859 107.678 29.1394C107.573 29.2929 107.493 29.5192 107.437 29.8182C107.381 30.1171 107.349 30.3677 107.341 30.5697C107.333 30.7717 107.329 31.0424 107.329 31.3818C107.329 31.7212 107.329 31.9515 107.329 32.0727C107.337 32.1859 107.349 32.3757 107.365 32.6424C107.389 32.901 107.421 33.0868 107.462 33.2C107.51 33.3131 107.573 33.4586 107.654 33.6364C107.742 33.8141 107.85 33.9394 107.979 34.0121C108.307 34.2222 108.68 34.3273 109.098 34.3273C109.796 34.3273 110.289 34.0283 110.578 33.4303V32.8485H109.543V31.4424H112.01V34.0485C111.76 34.6384 111.368 35.0828 110.83 35.3818C110.293 35.6808 109.683 35.8303 109.002 35.8303C107.79 35.8303 106.912 35.4909 106.367 34.8121C105.829 34.1253 105.56 33.0868 105.56 31.697Z" fill="white"/>
</svg>
